<svg xmlns="http://www.w3.org/2000/svg" xmlns:xlink="http://www.w3.org/1999/xlink" width="1em" height="1em" preserveAspectRatio="xMidYMid meet" viewBox="0 0 24 24" style="-ms-transform: rotate(360deg); -webkit-transform: rotate(360deg); transform: rotate(360deg);"><g fill="none"><g clip-path="url(#IconifyId-183222cbbfe-15c5b0-10768)"><path fill="white" d="M23.5 6.507a2.786 2.786 0 0 0-.766-1.27a3.05 3.05 0 0 0-1.338-.742C19.518 4 11.994 4 11.994 4a76.624 76.624 0 0 0-9.39.47a3.16 3.16 0 0 0-1.338.76c-.37.356-.638.795-.778 1.276A29.09 29.09 0 0 0 0 12c-.012 1.841.151 3.68.488 5.494c.137.479.404.916.775 1.269c.371.353.833.608 1.341.743c1.903.494 9.39.494 9.39.494a76.8 76.8 0 0 0 9.402-.47a3.05 3.05 0 0 0 1.338-.742a2.78 2.78 0 0 0 .765-1.27A28.38 28.38 0 0 0 24 12.023a26.579 26.579 0 0 0-.5-5.517ZM9.602 15.424V8.577l6.26 3.424l-6.26 3.423Z"/></g><defs><clipPath id="IconifyId-183222cbbfe-15c5b0-10768"><path fill="#fff" d="M0 0h24v24H0z"/></clipPath></defs></g></svg>